<?xml version="1.0" encoding="UTF-8" standalone="no"?>
<!-- Generator: Adobe Illustrator 16.0.0, SVG Export Plug-In . SVG Version: 6.00 Build 0)  -->

<svg
   xmlns:dc="http://purl.org/dc/elements/1.1/"
   xmlns:cc="http://creativecommons.org/ns#"
   xmlns:rdf="http://www.w3.org/1999/02/22-rdf-syntax-ns#"
   xmlns:svg="http://www.w3.org/2000/svg"
   xmlns="http://www.w3.org/2000/svg"
   xmlns:sodipodi="http://sodipodi.sourceforge.net/DTD/sodipodi-0.dtd"
   xmlns:inkscape="http://www.inkscape.org/namespaces/inkscape"
   version="1.1"
   id="Layer_1"
   x="0px"
   y="0px"
   width="191.55476"
   height="276.17065"
   viewBox="0 0 191.55476 276.17064"
   enable-background="new 0 0 841.89 595.28"
   xml:space="preserve"
   inkscape:version="0.91 r13725"
   sodipodi:docname="Logo_ATIt_ritaglio.svg"><metadata
     id="metadata105"><rdf:RDF><cc:Work
         rdf:about=""><dc:format>image/svg+xml</dc:format><dc:type
           rdf:resource="http://purl.org/dc/dcmitype/StillImage" /><dc:title></dc:title></cc:Work></rdf:RDF></metadata><defs
     id="defs103" /><sodipodi:namedview
     pagecolor="#ffffff"
     bordercolor="#666666"
     borderopacity="1"
     objecttolerance="10"
     gridtolerance="10"
     guidetolerance="10"
     inkscape:pageopacity="0"
     inkscape:pageshadow="2"
     inkscape:window-width="640"
     inkscape:window-height="480"
     id="namedview101"
     showgrid="false"
     inkscape:zoom="0.39645207"
     inkscape:cx="98.009591"
     inkscape:cy="135.08699"
     inkscape:window-x="0"
     inkscape:window-y="0"
     inkscape:window-maximized="0"
     inkscape:current-layer="Layer_1"
     fit-margin-top="0"
     fit-margin-left="0"
     fit-margin-right="0"
     fit-margin-bottom="0" /><g
     id="g3"
     transform="translate(-322.93542,-156.55635)"><path
       stroke-miterlimit="10"
       d="m 348.819,350.264 c -0.477,0.13 -0.911,-0.13 -1.042,-0.607 -0.13,-0.478 -0.304,-0.998 -0.434,-1.562 -0.304,-0.998 -0.564,-2.3 -1.042,-3.905 l -9.287,0 c -0.477,1.605 -0.781,2.907 -1.084,3.905 -0.13,0.564 -0.304,1.085 -0.434,1.562 -0.13,0.478 -0.521,0.738 -0.998,0.607 -0.478,-0.13 -0.738,-0.564 -0.608,-1.042 l 6.943,-25.169 c 0.13,-0.391 0.434,-0.608 0.825,-0.608 0.391,0 0.651,0.217 0.781,0.608 l 6.943,25.169 c 0.132,0.478 -0.085,0.912 -0.563,1.042 z m -7.16,-22.87 c -0.694,2.647 -2.647,9.677 -4.166,15.145 l 8.332,0 c -1.519,-5.468 -3.471,-12.498 -4.166,-15.145 z"
       id="path5"
       inkscape:connector-curvature="0"
       style="fill:#7bc89c;stroke:#7bc89d;stroke-width:0.5;stroke-miterlimit:10" /><path
       stroke-miterlimit="10"
       d="m 361.185,345.143 c -0.043,-1.042 -0.521,-1.866 -1.389,-2.474 l -4.036,-2.864 c -1.171,-0.824 -1.866,-2.083 -1.996,-3.515 -0.087,-1.475 0.434,-2.734 1.519,-3.775 1.042,-0.998 2.474,-1.389 3.862,-1.171 1.432,0.217 2.647,1.084 3.341,2.3 0.217,0.391 0.13,0.868 -0.26,1.085 -0.391,0.217 -0.868,0.087 -1.085,-0.304 -0.521,-0.868 -1.258,-1.389 -2.213,-1.519 -0.998,-0.13 -1.866,0.13 -2.604,0.781 -0.738,0.651 -1.042,1.519 -0.998,2.517 0.086,0.998 0.521,1.779 1.345,2.343 l 4.036,2.821 c 1.215,0.868 1.91,2.169 2.04,3.688 0.13,1.519 -0.477,2.908 -1.562,3.906 -1.085,0.998 -2.517,1.432 -4.036,1.215 -1.432,-0.304 -2.734,-1.042 -3.472,-2.387 -0.217,-0.391 -0.086,-0.868 0.304,-1.085 0.391,-0.217 0.868,-0.086 1.085,0.304 0.521,0.912 1.302,1.476 2.344,1.606 1.042,0.173 1.953,-0.087 2.734,-0.825 0.78,-0.738 1.128,-1.605 1.041,-2.647 z"
       id="path7"
       inkscape:connector-curvature="0"
       style="fill:#7bc89c;stroke:#7bc89d;stroke-width:0.5;stroke-miterlimit:10" /><path
       stroke-miterlimit="10"
       d="m 375.46,345.143 c -0.043,-1.042 -0.521,-1.866 -1.389,-2.474 l -4.036,-2.864 c -1.171,-0.824 -1.866,-2.083 -1.996,-3.515 -0.087,-1.475 0.434,-2.734 1.519,-3.775 1.042,-0.998 2.474,-1.389 3.862,-1.171 1.432,0.217 2.647,1.084 3.341,2.3 0.217,0.391 0.13,0.868 -0.26,1.085 -0.391,0.217 -0.868,0.087 -1.085,-0.304 -0.521,-0.868 -1.258,-1.389 -2.213,-1.519 -0.998,-0.13 -1.866,0.13 -2.604,0.781 -0.738,0.651 -1.042,1.519 -0.998,2.517 0.086,0.998 0.521,1.779 1.345,2.343 l 4.036,2.821 c 1.215,0.868 1.91,2.169 2.04,3.688 0.13,1.519 -0.477,2.908 -1.562,3.906 -1.085,0.998 -2.517,1.432 -4.036,1.215 -1.432,-0.304 -2.734,-1.042 -3.472,-2.387 -0.217,-0.391 -0.086,-0.868 0.304,-1.085 0.391,-0.217 0.868,-0.086 1.085,0.304 0.521,0.912 1.302,1.476 2.344,1.606 1.042,0.173 1.953,-0.087 2.734,-0.825 0.781,-0.738 1.128,-1.605 1.041,-2.647 z"
       id="path9"
       inkscape:connector-curvature="0"
       style="fill:#7bc89c;stroke:#7bc89d;stroke-width:0.5;stroke-miterlimit:10" /><path
       stroke-miterlimit="10"
       d="m 382.619,345.1 0,-8.679 c 0,-2.777 2.344,-5.121 5.121,-5.121 2.777,0 5.121,2.343 5.121,5.121 l 0,8.679 c 0,2.777 -2.343,5.121 -5.121,5.121 -2.778,0 -5.121,-2.344 -5.121,-5.121 z m 1.562,-8.68 0,8.679 c 0,1.953 1.605,3.559 3.559,3.559 1.953,0 3.558,-1.606 3.558,-3.559 l 0,-8.679 c 0,-1.953 -1.605,-3.559 -3.558,-3.559 -1.953,0.001 -3.559,1.607 -3.559,3.559 z"
       id="path11"
       inkscape:connector-curvature="0"
       style="fill:#7bc89c;stroke:#7bc89d;stroke-width:0.5;stroke-miterlimit:10" /><path
       stroke-miterlimit="10"
       d="m 398.933,345.1 0,-8.679 c 0,-2.083 1.215,-3.906 3.168,-4.73 1.91,-0.825 4.036,-0.391 5.555,1.128 0.13,0.13 0.217,0.347 0.217,0.564 0,0.217 -0.086,0.391 -0.217,0.521 -0.13,0.13 -0.347,0.217 -0.564,0.217 -0.217,0 -0.391,-0.087 -0.521,-0.217 -1.042,-0.998 -2.56,-1.302 -3.905,-0.781 -1.346,0.564 -2.17,1.866 -2.17,3.298 l 0,8.679 c 0,1.432 0.824,2.734 2.17,3.298 1.345,0.564 2.864,0.261 3.905,-0.781 0.13,-0.13 0.304,-0.217 0.521,-0.217 0.217,0 0.434,0.087 0.564,0.217 0.13,0.13 0.217,0.347 0.217,0.564 0,0.217 -0.086,0.391 -0.217,0.521 -1.519,1.519 -3.645,1.953 -5.555,1.128 -1.953,-0.825 -3.168,-2.647 -3.168,-4.73 z"
       id="path13"
       inkscape:connector-curvature="0"
       style="fill:#7bc89c;stroke:#7bc89d;stroke-width:0.5;stroke-miterlimit:10" /><path
       stroke-miterlimit="10"
       d="m 413.251,325.571 c 0,-0.651 0.564,-1.215 1.215,-1.215 0.694,0 1.215,0.564 1.215,1.215 0,0.651 -0.521,1.215 -1.215,1.215 -0.651,10e-4 -1.215,-0.564 -1.215,-1.215 z m 1.215,24.649 c -0.477,0 -0.781,-0.304 -0.781,-0.781 l 0,-17.358 c 0,-0.478 0.304,-0.781 0.781,-0.781 0.478,0 0.781,0.304 0.781,0.781 l 0,17.358 c 10e-4,0.478 -0.303,0.781 -0.781,0.781 z"
       id="path15"
       inkscape:connector-curvature="0"
       style="fill:#7bc89c;stroke:#7bc89d;stroke-width:0.5;stroke-miterlimit:10" /><path
       stroke-miterlimit="10"
       d="m 429.307,336.333 c 0,-1.389 -0.824,-2.647 -2.17,-3.211 -1.345,-0.521 -2.777,-0.26 -3.775,0.738 -0.13,0.174 -0.347,0.261 -0.564,0.261 -0.217,0 -0.39,-0.087 -0.52,-0.261 -0.131,-0.13 -0.217,-0.304 -0.217,-0.521 0,-0.217 0.086,-0.434 0.217,-0.564 1.432,-1.432 3.602,-1.91 5.467,-1.085 1.91,0.824 3.125,2.604 3.125,4.643 l 0,12.932 c 0,0.478 -0.304,0.781 -0.781,0.781 l -4.34,0 c -2.777,0 -5.12,-2.344 -5.12,-5.121 0,-2.777 2.343,-5.121 5.12,-5.121 l 3.559,0 0,-3.471 z m -3.559,12.151 3.559,0 0,-7.117 -3.559,0 c -2.039,0 -3.559,1.605 -3.559,3.558 0,1.954 1.52,3.559 3.559,3.559 z"
       id="path17"
       inkscape:connector-curvature="0"
       style="fill:#7bc89c;stroke:#7bc89d;stroke-width:0.5;stroke-miterlimit:10" /><path
       stroke-miterlimit="10"
       d="m 436.465,348.918 c 1.346,-2.604 2.561,-4.991 3.689,-7.204 1.865,-3.732 3.861,-7.681 4.426,-8.679 l -7.377,0 c -0.479,0 -0.781,-0.304 -0.781,-0.781 0,-0.477 0.303,-0.781 0.781,-0.781 l 8.679,0 c 0.304,0 0.521,0.13 0.651,0.391 0.086,0.13 0.13,0.26 0.13,0.391 0,0.131 -0.044,0.217 -0.087,0.347 -1.346,2.604 -2.561,4.991 -3.688,7.204 -1.953,3.689 -3.993,7.681 -4.427,8.679 l 7.421,0 c 0.391,0 0.781,0.304 0.781,0.781 0,0.477 -0.391,0.781 -0.781,0.781 l -8.679,0 c -0.348,0 -0.564,-0.13 -0.695,-0.391 -0.043,-0.043 -0.086,-0.174 -0.086,-0.391 0,-0.173 0,-0.303 0.043,-0.347 z"
       id="path19"
       inkscape:connector-curvature="0"
       style="fill:#7bc89c;stroke:#7bc89d;stroke-width:0.5;stroke-miterlimit:10" /><path
       stroke-miterlimit="10"
       d="m 452.129,325.571 c 0,-0.651 0.564,-1.215 1.215,-1.215 0.695,0 1.215,0.564 1.215,1.215 0,0.651 -0.52,1.215 -1.215,1.215 -0.651,10e-4 -1.215,-0.564 -1.215,-1.215 z m 1.215,24.649 c -0.477,0 -0.781,-0.304 -0.781,-0.781 l 0,-17.358 c 0,-0.478 0.305,-0.781 0.781,-0.781 0.478,0 0.781,0.304 0.781,0.781 l 0,17.358 c 0,0.478 -0.304,0.781 -0.781,0.781 z"
       id="path21"
       inkscape:connector-curvature="0"
       style="fill:#7bc89c;stroke:#7bc89d;stroke-width:0.5;stroke-miterlimit:10" /><path
       stroke-miterlimit="10"
       d="m 460.721,345.1 0,-8.679 c 0,-2.777 2.344,-5.121 5.121,-5.121 2.777,0 5.12,2.343 5.12,5.121 l 0,8.679 c 0,2.777 -2.343,5.121 -5.12,5.121 -2.777,0 -5.121,-2.344 -5.121,-5.121 z m 1.562,-8.68 0,8.679 c 0,1.953 1.605,3.559 3.559,3.559 1.952,0 3.558,-1.606 3.558,-3.559 l 0,-8.679 c 0,-1.953 -1.605,-3.559 -3.558,-3.559 -1.953,0.001 -3.559,1.607 -3.559,3.559 z"
       id="path23"
       inkscape:connector-curvature="0"
       style="fill:#7bc89c;stroke:#7bc89d;stroke-width:0.5;stroke-miterlimit:10" /><path
       stroke-miterlimit="10"
       d="m 477.556,349.439 0,-17.185 c 0,-0.478 0.304,-0.781 0.78,-0.781 l 4.34,0 c 2.777,0 5.121,2.343 5.121,5.121 l 0,12.846 c 0,0.477 -0.304,0.781 -0.781,0.781 -0.477,0 -0.781,-0.304 -0.781,-0.781 l 0,-12.846 c 0,-1.953 -1.605,-3.558 -3.559,-3.558 l -3.559,0 0,16.404 c 0,0.477 -0.303,0.781 -0.781,0.781 -0.477,-10e-4 -0.78,-0.304 -0.78,-0.782 z"
       id="path25"
       inkscape:connector-curvature="0"
       style="fill:#7bc89c;stroke:#7bc89d;stroke-width:0.5;stroke-miterlimit:10" /><path
       stroke-miterlimit="10"
       d="m 494.044,345.1 0,-8.679 c 0,-2.777 2.343,-5.121 5.12,-5.121 2.777,0 5.121,2.343 5.121,5.121 l 0,4.339 c 0,0.478 -0.303,0.781 -0.781,0.781 l -7.897,0 0,3.559 c 0,1.432 0.868,2.734 2.213,3.298 1.345,0.564 2.821,0.261 3.862,-0.781 0.131,-0.13 0.304,-0.217 0.521,-0.217 0.217,0 0.434,0.087 0.563,0.217 0.13,0.13 0.218,0.347 0.218,0.564 0,0.217 -0.088,0.391 -0.218,0.521 -1.433,1.519 -3.646,1.953 -5.555,1.128 -1.908,-0.825 -3.167,-2.647 -3.167,-4.73 z m 1.562,-8.68 0,3.559 7.116,0 0,-3.559 c 0,-1.953 -1.605,-3.559 -3.559,-3.559 -1.951,0.001 -3.557,1.607 -3.557,3.559 z"
       id="path27"
       inkscape:connector-curvature="0"
       style="fill:#7bc89c;stroke:#7bc89d;stroke-width:0.5;stroke-miterlimit:10" /><path
       stroke-miterlimit="10"
       d="m 360.773,365.55 c 0,0.478 -0.39,0.825 -0.868,0.825 l -4.773,0 0,24.171 c 0,0.478 -0.391,0.825 -0.868,0.825 -0.477,0 -0.824,-0.347 -0.824,-0.825 l 0,-24.171 -4.817,0 c -0.478,0 -0.825,-0.347 -0.825,-0.825 0,-0.477 0.347,-0.824 0.825,-0.824 l 11.283,0 c 0.477,0 0.867,0.347 0.867,0.824 z"
       id="path29"
       inkscape:connector-curvature="0"
       style="fill:#7bc89c;stroke:#7bc89d;stroke-width:0.5;stroke-miterlimit:10" /><path
       stroke-miterlimit="10"
       d="m 362.507,386.207 0,-8.679 c 0,-2.777 2.343,-5.121 5.121,-5.121 2.778,0 5.121,2.343 5.121,5.121 l 0,4.34 c 0,0.477 -0.304,0.781 -0.781,0.781 l -7.898,0 0,3.559 c 0,1.432 0.868,2.734 2.213,3.298 1.345,0.564 2.821,0.26 3.862,-0.781 0.13,-0.13 0.304,-0.217 0.521,-0.217 0.217,0 0.434,0.087 0.564,0.217 0.13,0.13 0.217,0.347 0.217,0.564 0,0.217 -0.087,0.391 -0.217,0.521 -1.432,1.519 -3.645,1.953 -5.555,1.128 -1.909,-0.826 -3.168,-2.648 -3.168,-4.731 z m 1.562,-8.68 0,3.559 7.117,0 0,-3.559 c 0,-1.953 -1.605,-3.559 -3.559,-3.559 -1.952,10e-4 -3.558,1.607 -3.558,3.559 z"
       id="path31"
       inkscape:connector-curvature="0"
       style="fill:#7bc89c;stroke:#7bc89d;stroke-width:0.5;stroke-miterlimit:10" /><path
       stroke-miterlimit="10"
       d="m 378.996,390.546 0,-17.185 c 0,-0.478 0.304,-0.781 0.781,-0.781 l 4.339,0 c 0.868,0 1.736,0.217 2.561,0.694 0.39,0.217 0.521,0.694 0.304,1.042 -0.217,0.391 -0.694,0.521 -1.085,0.304 -0.564,-0.304 -1.128,-0.477 -1.779,-0.477 l -3.559,0 0,16.403 c 0,0.478 -0.304,0.781 -0.781,0.781 -0.478,0 -0.781,-0.304 -0.781,-0.781 z"
       id="path33"
       inkscape:connector-curvature="0"
       style="fill:#7bc89c;stroke:#7bc89d;stroke-width:0.5;stroke-miterlimit:10" /><path
       stroke-miterlimit="10"
       d="m 391.535,366.678 c 0,-0.651 0.564,-1.215 1.215,-1.215 0.694,0 1.215,0.564 1.215,1.215 0,0.651 -0.521,1.215 -1.215,1.215 -0.651,0.001 -1.215,-0.564 -1.215,-1.215 z m 1.215,24.649 c -0.478,0 -0.781,-0.304 -0.781,-0.781 l 0,-17.358 c 0,-0.477 0.304,-0.781 0.781,-0.781 0.477,0 0.781,0.304 0.781,0.781 l 0,17.358 c 0,0.477 -0.303,0.781 -0.781,0.781 z"
       id="path35"
       inkscape:connector-curvature="0"
       style="fill:#7bc89c;stroke:#7bc89d;stroke-width:0.5;stroke-miterlimit:10" /><path
       stroke-miterlimit="10"
       d="m 400.126,386.207 0,-8.679 c 0,-2.777 2.344,-5.121 5.121,-5.121 2.777,0 5.121,2.343 5.121,5.121 l 0,8.679 c 0,2.777 -2.343,5.121 -5.121,5.121 -2.778,0 -5.121,-2.344 -5.121,-5.121 z m 1.563,-8.68 0,8.679 c 0,1.953 1.605,3.559 3.559,3.559 1.953,0 3.558,-1.606 3.558,-3.559 l 0,-8.679 c 0,-1.953 -1.605,-3.559 -3.558,-3.559 -1.954,10e-4 -3.559,1.607 -3.559,3.559 z"
       id="path37"
       inkscape:connector-curvature="0"
       style="fill:#7bc89c;stroke:#7bc89d;stroke-width:0.5;stroke-miterlimit:10" /><path
       stroke-miterlimit="10"
       d="m 416.832,387.552 0,-23.043 c 0,-0.478 0.391,-0.781 0.781,-0.781 0.478,0 0.781,0.304 0.781,0.781 l 0,23.043 c 0,0.998 0.521,1.823 1.345,2.3 0.391,0.217 0.521,0.694 0.304,1.085 -0.217,0.391 -0.694,0.521 -1.085,0.304 -1.345,-0.825 -2.126,-2.17 -2.126,-3.689 z"
       id="path39"
       inkscape:connector-curvature="0"
       style="fill:#7bc89c;stroke:#7bc89d;stroke-width:0.5;stroke-miterlimit:10" /><path
       stroke-miterlimit="10"
       d="m 425.119,386.207 0,-8.679 c 0,-2.777 2.344,-5.121 5.121,-5.121 2.777,0 5.121,2.343 5.121,5.121 l 0,8.679 c 0,2.777 -2.344,5.121 -5.121,5.121 -2.777,0 -5.121,-2.344 -5.121,-5.121 z m 1.563,-8.68 0,8.679 c 0,1.953 1.605,3.559 3.559,3.559 1.954,0 3.559,-1.606 3.559,-3.559 l 0,-8.679 c 0,-1.953 -1.605,-3.559 -3.559,-3.559 -1.954,0 -3.559,1.607 -3.559,3.559 z"
       id="path41"
       inkscape:connector-curvature="0"
       style="fill:#7bc89c;stroke:#7bc89d;stroke-width:0.5;stroke-miterlimit:10" /><path
       stroke-miterlimit="10"
       d="m 441.434,386.033 0,-8.332 c 0,-2.777 2.344,-5.121 5.121,-5.121 l 4.34,0 c 0.477,0 0.781,0.304 0.781,0.781 l 0,21.524 c 0,2.083 -1.216,3.906 -3.168,4.73 -1.91,0.825 -4.037,0.391 -5.555,-1.128 -0.131,-0.13 -0.217,-0.347 -0.217,-0.564 0,-0.217 0.086,-0.391 0.217,-0.521 0.129,-0.13 0.303,-0.217 0.52,-0.217 0.218,0 0.435,0.087 0.564,0.217 1.042,1.042 2.561,1.345 3.906,0.781 1.346,-0.564 2.17,-1.866 2.17,-3.298 l 0,-3.732 -3.559,0 c -2.777,10e-4 -5.12,-2.342 -5.12,-5.12 z m 1.562,-8.332 0,8.332 c 0,1.953 1.605,3.558 3.559,3.558 l 3.559,0 0,-15.449 -3.559,0 c -1.953,10e-4 -3.559,1.606 -3.559,3.559 z"
       id="path43"
       inkscape:connector-curvature="0"
       style="fill:#7bc89c;stroke:#7bc89d;stroke-width:0.5;stroke-miterlimit:10" /><path
       stroke-miterlimit="10"
       d="m 458.182,366.678 c 0,-0.651 0.564,-1.215 1.215,-1.215 0.695,0 1.216,0.564 1.216,1.215 0,0.651 -0.521,1.215 -1.216,1.215 -0.651,0.001 -1.215,-0.564 -1.215,-1.215 z m 1.214,24.649 c -0.477,0 -0.78,-0.304 -0.78,-0.781 l 0,-17.358 c 0,-0.477 0.304,-0.781 0.78,-0.781 0.479,0 0.781,0.304 0.781,0.781 l 0,17.358 c 10e-4,0.477 -0.302,0.781 -0.781,0.781 z"
       id="path45"
       inkscape:connector-curvature="0"
       style="fill:#7bc89c;stroke:#7bc89d;stroke-width:0.5;stroke-miterlimit:10" /><path
       stroke-miterlimit="10"
       d="m 466.773,386.207 0,-8.679 c 0,-2.083 1.215,-3.906 3.168,-4.73 1.91,-0.825 4.035,-0.391 5.555,1.128 0.131,0.13 0.217,0.347 0.217,0.564 0,0.217 -0.086,0.391 -0.217,0.521 -0.131,0.13 -0.348,0.217 -0.564,0.217 -0.216,0 -0.391,-0.087 -0.521,-0.217 -1.042,-0.998 -2.56,-1.302 -3.905,-0.781 -1.346,0.564 -2.17,1.866 -2.17,3.298 l 0,8.679 c 0,1.432 0.824,2.734 2.17,3.298 1.346,0.564 2.863,0.26 3.905,-0.781 0.13,-0.13 0.304,-0.217 0.521,-0.217 0.217,0 0.434,0.087 0.564,0.217 0.131,0.13 0.217,0.347 0.217,0.564 0,0.217 -0.086,0.391 -0.217,0.521 -1.52,1.519 -3.645,1.953 -5.555,1.128 -1.953,-0.825 -3.168,-2.647 -3.168,-4.73 z"
       id="path47"
       inkscape:connector-curvature="0"
       style="fill:#7bc89c;stroke:#7bc89d;stroke-width:0.5;stroke-miterlimit:10" /><path
       stroke-miterlimit="10"
       d="m 488.469,377.44 c 0,-1.389 -0.824,-2.647 -2.17,-3.211 -1.345,-0.521 -2.777,-0.261 -3.775,0.737 -0.13,0.174 -0.347,0.261 -0.564,0.261 -0.217,0 -0.39,-0.087 -0.52,-0.261 -0.131,-0.13 -0.217,-0.304 -0.217,-0.521 0,-0.217 0.086,-0.434 0.217,-0.564 1.432,-1.432 3.602,-1.909 5.467,-1.084 1.91,0.824 3.125,2.604 3.125,4.643 l 0,12.932 c 0,0.478 -0.304,0.781 -0.781,0.781 l -4.34,0 c -2.777,0 -5.12,-2.343 -5.12,-5.121 0,-2.778 2.343,-5.121 5.12,-5.121 l 3.559,0 0,-3.471 z m -3.559,12.151 3.559,0 0,-7.117 -3.559,0 c -2.039,0 -3.559,1.605 -3.559,3.559 10e-4,1.953 1.52,3.558 3.559,3.558 z"
       id="path49"
       inkscape:connector-curvature="0"
       style="fill:#7bc89c;stroke:#7bc89d;stroke-width:0.5;stroke-miterlimit:10" /><path
       stroke-miterlimit="10"
       d="m 372.292,431.653 0,-25.17 c 0,-0.478 0.347,-0.825 0.824,-0.825 0.478,0 0.868,0.347 0.868,0.825 l 0,25.17 c 0,0.477 -0.391,0.824 -0.868,0.824 -0.477,0.001 -0.824,-0.347 -0.824,-0.824 z"
       id="path51"
       inkscape:connector-curvature="0"
       style="fill:#7bc89c;stroke:#7bc89d;stroke-width:0.5;stroke-miterlimit:10" /><path
       stroke-miterlimit="10"
       d="m 379.104,414.468 c 0,-0.478 0.304,-0.781 0.781,-0.781 l 2.69,0 0,-8.072 c 0,-0.477 0.304,-0.781 0.781,-0.781 0.477,0 0.781,0.304 0.781,0.781 l 0,8.072 3.558,0 c 0.478,0 0.781,0.304 0.781,0.781 0,0.477 -0.304,0.781 -0.781,0.781 l -3.558,0 0,12.064 c 0,1.953 1.605,3.559 3.558,3.559 0.478,0 0.781,0.304 0.781,0.781 0,0.477 -0.304,0.781 -0.781,0.781 -2.777,0 -5.121,-2.343 -5.121,-5.121 l 0,-12.063 -2.69,0 c -0.477,0 -0.78,-0.304 -0.78,-0.782 z"
       id="path53"
       inkscape:connector-curvature="0"
       style="fill:#7bc89c;stroke:#7bc89d;stroke-width:0.5;stroke-miterlimit:10" /><path
       stroke-miterlimit="10"
       d="m 400.8,418.547 c 0,-1.389 -0.825,-2.647 -2.17,-3.211 -1.345,-0.521 -2.777,-0.26 -3.775,0.738 -0.13,0.174 -0.347,0.261 -0.564,0.261 -0.217,0 -0.391,-0.087 -0.521,-0.261 -0.13,-0.13 -0.217,-0.304 -0.217,-0.521 0,-0.217 0.086,-0.434 0.217,-0.564 1.432,-1.432 3.602,-1.91 5.468,-1.085 1.91,0.824 3.125,2.604 3.125,4.643 l 0,12.932 c 0,0.478 -0.304,0.781 -0.781,0.781 l -4.339,0 c -2.777,0 -5.121,-2.344 -5.121,-5.121 0,-2.777 2.343,-5.121 5.121,-5.121 l 3.559,0 0,-3.471 z m -3.559,12.151 3.559,0 0,-7.117 -3.559,0 c -2.04,0 -3.559,1.605 -3.559,3.558 10e-4,1.954 1.52,3.559 3.559,3.559 z"
       id="path55"
       inkscape:connector-curvature="0"
       style="fill:#7bc89c;stroke:#7bc89d;stroke-width:0.5;stroke-miterlimit:10" /><path
       stroke-miterlimit="10"
       d="m 408.999,428.659 0,-23.043 c 0,-0.477 0.391,-0.781 0.781,-0.781 0.477,0 0.781,0.304 0.781,0.781 l 0,23.043 c 0,0.998 0.521,1.823 1.345,2.3 0.391,0.217 0.521,0.694 0.304,1.084 -0.217,0.391 -0.694,0.521 -1.085,0.304 -1.345,-0.824 -2.126,-2.169 -2.126,-3.688 z"
       id="path57"
       inkscape:connector-curvature="0"
       style="fill:#7bc89c;stroke:#7bc89d;stroke-width:0.5;stroke-miterlimit:10" /><path
       stroke-miterlimit="10"
       d="m 417.374,407.785 c 0,-0.651 0.564,-1.215 1.215,-1.215 0.694,0 1.215,0.564 1.215,1.215 0,0.651 -0.521,1.215 -1.216,1.215 -0.65,0 -1.214,-0.564 -1.214,-1.215 z m 1.214,24.649 c -0.477,0 -0.781,-0.304 -0.781,-0.781 l 0,-17.358 c 0,-0.478 0.304,-0.781 0.781,-0.781 0.478,0 0.781,0.304 0.781,0.781 l 0,17.358 c 10e-4,0.477 -0.303,0.781 -0.781,0.781 z"
       id="path59"
       inkscape:connector-curvature="0"
       style="fill:#7bc89c;stroke:#7bc89d;stroke-width:0.5;stroke-miterlimit:10" /><path
       stroke-miterlimit="10"
       d="m 433.43,418.547 c 0,-1.389 -0.825,-2.647 -2.17,-3.211 -1.346,-0.521 -2.777,-0.26 -3.775,0.738 -0.131,0.174 -0.348,0.261 -0.564,0.261 -0.216,0 -0.391,-0.087 -0.521,-0.261 -0.13,-0.13 -0.217,-0.304 -0.217,-0.521 0,-0.217 0.087,-0.434 0.217,-0.564 1.433,-1.432 3.603,-1.91 5.469,-1.085 1.909,0.824 3.124,2.604 3.124,4.643 l 0,12.932 c 0,0.478 -0.304,0.781 -0.78,0.781 l -4.34,0 c -2.777,0 -5.121,-2.344 -5.121,-5.121 0,-2.777 2.344,-5.121 5.121,-5.121 l 3.559,0 0,-3.471 z m -3.559,12.151 3.559,0 0,-7.117 -3.559,0 c -2.04,0 -3.559,1.605 -3.559,3.558 0,1.954 1.519,3.559 3.559,3.559 z"
       id="path61"
       inkscape:connector-curvature="0"
       style="fill:#7bc89c;stroke:#7bc89d;stroke-width:0.5;stroke-miterlimit:10" /><path
       stroke-miterlimit="10"
       d="m 441.759,431.653 0,-17.185 c 0,-0.478 0.304,-0.781 0.78,-0.781 l 4.34,0 c 2.777,0 5.121,2.343 5.121,5.121 l 0,12.846 c 0,0.477 -0.304,0.781 -0.781,0.781 -0.477,0 -0.781,-0.304 -0.781,-0.781 l 0,-12.846 c 0,-1.953 -1.605,-3.558 -3.559,-3.558 l -3.559,0 0,16.404 c 0,0.477 -0.303,0.781 -0.781,0.781 -0.477,-10e-4 -0.78,-0.305 -0.78,-0.782 z"
       id="path63"
       inkscape:connector-curvature="0"
       style="fill:#7bc89c;stroke:#7bc89d;stroke-width:0.5;stroke-miterlimit:10" /><path
       stroke-miterlimit="10"
       d="m 465.711,418.547 c 0,-1.389 -0.824,-2.647 -2.17,-3.211 -1.345,-0.521 -2.777,-0.26 -3.775,0.738 -0.13,0.174 -0.347,0.261 -0.564,0.261 -0.217,0 -0.39,-0.087 -0.52,-0.261 -0.131,-0.13 -0.217,-0.304 -0.217,-0.521 0,-0.217 0.086,-0.434 0.217,-0.564 1.432,-1.432 3.602,-1.91 5.467,-1.085 1.91,0.824 3.125,2.604 3.125,4.643 l 0,12.932 c 0,0.478 -0.304,0.781 -0.781,0.781 l -4.34,0 c -2.777,0 -5.12,-2.344 -5.12,-5.121 0,-2.777 2.343,-5.121 5.12,-5.121 l 3.559,0 0,-3.471 z m -3.559,12.151 3.559,0 0,-7.117 -3.559,0 c -2.039,0 -3.559,1.605 -3.559,3.558 10e-4,1.954 1.52,3.559 3.559,3.559 z"
       id="path65"
       inkscape:connector-curvature="0"
       style="fill:#7bc89c;stroke:#7bc89d;stroke-width:0.5;stroke-miterlimit:10" /></g><g
     id="g67"
     transform="translate(-322.93542,-156.55635)"><g
       id="g69"><path
         d="m 382.689,309.361 c -1.337,0 -2.639,-0.688 -3.366,-1.924 -4.173,-7.097 -17.323,-13.992 -29.257,-9.096 -1.447,0.593 -3.107,0.265 -4.221,-0.833 l -21.75,-21.483 c -1.222,-1.208 -1.511,-3.072 -0.71,-4.592 29.315,-55.655 43.386,-70.705 45.521,-72.821 23.574,-30.146 55.533,-41.378 56.885,-41.843 2.035,-0.7 4.255,0.385 4.955,2.421 0.699,2.036 -0.383,4.253 -2.418,4.955 l 0,0 c -0.311,0.107 -31.322,11.062 -53.436,39.475 -0.133,0.171 -0.28,0.33 -0.439,0.477 -0.115,0.109 -13.405,12.949 -42.816,68.415 l 17.948,17.727 c 14.443,-4.43 30.46,3.038 36.461,13.246 1.092,1.857 0.472,4.247 -1.385,5.338 -0.619,0.365 -1.3,0.538 -1.972,0.538 z"
         id="path71"
         inkscape:connector-curvature="0"
         style="fill:#7bc89c" /></g><g
       id="g73"><path
         d="m 401.976,218.302 c -0.835,0 -1.676,-0.267 -2.387,-0.818 -1.702,-1.32 -2.012,-3.77 -0.691,-5.472 26.83,-34.594 63.525,-47.097 65.074,-47.612 2.048,-0.678 4.252,0.425 4.932,2.47 0.681,2.043 -0.425,4.251 -2.469,4.931 -0.49,0.166 -36.096,12.398 -61.374,44.992 -0.769,0.99 -1.921,1.508 -3.085,1.509 z"
         id="path75"
         inkscape:connector-curvature="0"
         style="fill:#7bc89c" /></g><g
       id="g77"><path
         d="m 443.702,260.503 c -0.835,0 -1.676,-0.267 -2.387,-0.818 -1.702,-1.32 -2.012,-3.77 -0.692,-5.472 26.83,-34.595 63.524,-47.097 65.073,-47.613 2.049,-0.679 4.252,0.425 4.932,2.47 0.681,2.043 -0.425,4.251 -2.469,4.931 -0.49,0.166 -36.095,12.398 -61.372,44.992 -0.768,0.991 -1.921,1.509 -3.085,1.51 z"
         id="path79"
         inkscape:connector-curvature="0"
         style="fill:#7bc89c" /></g><g
       id="g81"><circle
         cx="358.173"
         cy="267.40601"
         r="5.6729999"
         id="circle83"
         style="fill:#7bc89c" /></g><g
       id="g85"><path
         d="m 381.3,270.998 c -0.478,0 -0.963,-0.088 -1.435,-0.275 -2.002,-0.793 -2.983,-3.059 -2.19,-5.062 1.772,-4.475 1.96,-8.36 0.56,-11.548 -2.09,-4.757 -7.152,-6.742 -7.203,-6.761 -2.002,-0.767 -3.022,-3.011 -2.269,-5.018 0.754,-2.007 2.978,-3.033 4.985,-2.294 0.33,0.121 8.104,3.057 11.578,10.823 2.322,5.191 2.188,11.136 -0.399,17.669 -0.607,1.532 -2.074,2.466 -3.627,2.466 z"
         id="path87"
         inkscape:connector-curvature="0"
         style="fill:#7bc89c" /></g><g
       id="g89"><path
         d="m 414.044,245.996 c -0.834,0 -1.674,-0.267 -2.384,-0.816 -1.703,-1.319 -2.015,-3.768 -0.697,-5.471 23.27,-30.058 55.11,-40.923 56.455,-41.371 2.038,-0.68 4.251,0.424 4.933,2.467 0.681,2.043 -0.424,4.252 -2.467,4.933 -0.462,0.156 -31.043,10.702 -52.753,38.745 -0.769,0.993 -1.922,1.513 -3.087,1.513 z"
         id="path91"
         inkscape:connector-curvature="0"
         style="fill:#7bc89c" /></g><g
       id="g93"><path
         d="m 486.154,302.18 c -0.841,0 -1.688,-0.271 -2.4,-0.829 -1.696,-1.327 -1.995,-3.778 -0.668,-5.475 8.17,-10.44 19.408,-14.242 19.882,-14.398 2.048,-0.677 4.252,0.435 4.927,2.48 0.675,2.042 -0.431,4.243 -2.47,4.923 l 0,0 c -0.094,0.032 -9.528,3.281 -16.196,11.802 -0.769,0.983 -1.917,1.496 -3.075,1.497 z"
         id="path95"
         inkscape:connector-curvature="0"
         style="fill:#7bc89c" /></g><g
       id="g97"><path
         d="m 455.983,288.164 c -0.834,0 -1.674,-0.267 -2.385,-0.816 -1.703,-1.318 -2.015,-3.768 -0.696,-5.471 23.267,-30.058 55.109,-40.923 56.454,-41.371 2.038,-0.679 4.251,0.424 4.933,2.467 0.681,2.042 -0.423,4.25 -2.464,4.932 l 0,0 c -0.308,0.103 -30.991,10.631 -52.755,38.747 -0.768,0.991 -1.922,1.512 -3.087,1.512 z"
         id="path99"
         inkscape:connector-curvature="0"
         style="fill:#7bc89c" /></g></g></svg>